<svg width="29" height="29" viewBox="0 0 29 29" fill="none" xmlns="http://www.w3.org/2000/svg">
<mask id="mask0_293_60" style="mask-type:alpha" maskUnits="userSpaceOnUse" x="0" y="0" width="29" height="29">
<rect y="0.381596" width="28.2368" height="28.2368" fill="#D9D9D9"/>
</mask>
<g mask="url(#mask0_293_60)">
<path d="M22.2073 23.7652C20.2268 23.7652 18.2021 23.2309 16.1334 22.1622C14.0647 21.0935 12.1871 19.7209 10.5007 18.0443C8.81437 16.3677 7.43685 14.5 6.36816 12.4411C5.29948 10.3821 4.76514 8.35261 4.76514 6.3525C4.76514 5.99954 4.88279 5.70051 5.1181 5.4554C5.3534 5.21029 5.65734 5.08773 6.02991 5.08773H8.61829C8.95164 5.08773 9.24087 5.19068 9.48598 5.39657C9.73109 5.60246 9.88306 5.87209 9.94189 6.20544L10.5596 8.82323C10.6184 9.13697 10.6135 9.41639 10.5449 9.66151C10.4762 9.90662 10.3439 10.1076 10.1478 10.2645L7.55941 12.7058C8.71633 14.6471 9.98601 16.2991 11.3684 17.6619C12.7509 19.0248 14.3735 20.216 16.2363 21.2357L18.7659 18.6179C18.962 18.4022 19.1728 18.2502 19.3983 18.162C19.6238 18.0737 19.8738 18.059 20.1483 18.1178L22.3543 18.6179C22.7073 18.6767 22.9818 18.8336 23.1779 19.0885C23.374 19.3434 23.472 19.6473 23.472 20.0003V22.5004C23.472 22.873 23.3544 23.1769 23.1191 23.4122C22.8838 23.6476 22.5798 23.7652 22.2073 23.7652ZM7.08879 11.9116L9.55951 9.61739C9.61834 9.55856 9.65756 9.47522 9.67717 9.36737C9.69678 9.25952 9.69678 9.15658 9.67717 9.05853L9.0889 6.3525C9.06929 6.23485 9.01537 6.14661 8.92713 6.08778C8.83889 6.02896 8.73594 5.99954 8.61829 5.99954H5.97108C5.87304 5.99954 5.7946 6.02896 5.73578 6.08778C5.67695 6.14661 5.64754 6.22505 5.64754 6.32309C5.62793 7.08784 5.74558 7.94082 6.0005 8.88205C6.25541 9.82328 6.61818 10.8331 7.08879 11.9116ZM17.0893 21.6474C17.8933 22.0592 18.7806 22.3681 19.7512 22.574C20.7219 22.7799 21.5602 22.8828 22.2661 22.8828C22.3641 22.8828 22.4426 22.8534 22.5014 22.7946C22.5602 22.7357 22.5896 22.6671 22.5896 22.5887V19.9415C22.5896 19.8238 22.5602 19.7258 22.5014 19.6473C22.4426 19.5689 22.3445 19.5199 22.2073 19.5003L19.913 19.0297C19.815 19.01 19.7316 19.01 19.663 19.0297C19.5944 19.0493 19.5306 19.0885 19.4718 19.1473L17.0893 21.6474Z" fill="#023059"/>
</g>
</svg>
