<svg width="48" height="48" viewBox="0 0 48 48" fill="none" xmlns="http://www.w3.org/2000/svg">
<mask id="mask0_95_1192" style="mask-type:alpha" maskUnits="userSpaceOnUse" x="0" y="0" width="48" height="48">
<rect width="48" height="48" fill="#D9D9D9"/>
</mask>
<g mask="url(#mask0_95_1192)">
<path d="M5.2998 33.85V32.65C6.26647 32.4833 7.05814 32.125 7.6748 31.575C8.29147 31.025 9.28314 30.75 10.6498 30.75C12.1165 30.75 13.2331 31.1167 13.9998 31.85C14.7665 32.5833 15.8665 32.95 17.2998 32.95C18.7331 32.95 19.8415 32.5833 20.6248 31.85C21.4081 31.1167 22.5331 30.75 23.9998 30.75C25.4998 30.75 26.6248 31.1167 27.3748 31.85C28.1248 32.5833 29.2165 32.95 30.6498 32.95C32.0831 32.95 33.1915 32.5833 33.9748 31.85C34.7581 31.1167 35.8831 30.75 37.3498 30.75C38.7165 30.75 39.7081 31.025 40.3248 31.575C40.9415 32.125 41.7331 32.4833 42.6998 32.65V33.85C41.7998 33.65 40.9748 33.2667 40.2248 32.7C39.4748 32.1333 38.5165 31.85 37.3498 31.85C35.9831 31.85 34.8998 32.2167 34.0998 32.95C33.2998 33.6833 32.1498 34.05 30.6498 34.05C29.1831 34.05 28.0665 33.6833 27.2998 32.95C26.5331 32.2167 25.4331 31.85 23.9998 31.85C22.5998 31.85 21.5081 32.2167 20.7248 32.95C19.9415 33.6833 18.7998 34.05 17.2998 34.05C15.8331 34.05 14.6998 33.6833 13.8998 32.95C13.0998 32.2167 12.0165 31.85 10.6498 31.85C9.4498 31.85 8.49147 32.1333 7.7748 32.7C7.05814 33.2667 6.23314 33.65 5.2998 33.85ZM5.2998 26.45V25.25C6.26647 25.0833 7.05814 24.725 7.6748 24.175C8.29147 23.625 9.28314 23.35 10.6498 23.35C12.1165 23.35 13.2331 23.7167 13.9998 24.45C14.7665 25.1833 15.8665 25.55 17.2998 25.55C18.7331 25.55 19.8415 25.1833 20.6248 24.45C21.4081 23.7167 22.5331 23.35 23.9998 23.35C25.4998 23.35 26.6248 23.7167 27.3748 24.45C28.1248 25.1833 29.2331 25.55 30.6998 25.55C32.1331 25.55 33.2331 25.1833 33.9998 24.45C34.7665 23.7167 35.8831 23.35 37.3498 23.35C38.7498 23.35 39.7498 23.625 40.3498 24.175C40.9498 24.725 41.7331 25.0833 42.6998 25.25V26.45C41.7998 26.25 40.9748 25.8667 40.2248 25.3C39.4748 24.7333 38.5165 24.45 37.3498 24.45C35.9831 24.45 34.8998 24.8167 34.0998 25.55C33.2998 26.2833 32.1498 26.65 30.6498 26.65C29.1831 26.65 28.0665 26.2833 27.2998 25.55C26.5331 24.8167 25.4331 24.45 23.9998 24.45C22.5998 24.45 21.4998 24.8167 20.6998 25.55C19.8998 26.2833 18.7665 26.65 17.2998 26.65C15.8331 26.65 14.6998 26.2833 13.8998 25.55C13.0998 24.8167 12.0165 24.45 10.6498 24.45C9.41647 24.45 8.45814 24.7333 7.7748 25.3C7.09147 25.8667 6.26647 26.25 5.2998 26.45ZM5.2998 19.05V17.85C6.26647 17.6833 7.05814 17.325 7.6748 16.775C8.29147 16.225 9.28314 15.95 10.6498 15.95C12.1165 15.95 13.2331 16.3167 13.9998 17.05C14.7665 17.7833 15.8665 18.15 17.2998 18.15C18.7331 18.15 19.8415 17.7833 20.6248 17.05C21.4081 16.3167 22.5331 15.95 23.9998 15.95C25.4998 15.95 26.6248 16.3167 27.3748 17.05C28.1248 17.7833 29.2331 18.15 30.6998 18.15C32.1331 18.15 33.2331 17.7833 33.9998 17.05C34.7665 16.3167 35.8831 15.95 37.3498 15.95C38.7498 15.95 39.7498 16.225 40.3498 16.775C40.9498 17.325 41.7331 17.6833 42.6998 17.85V19.05C41.7998 18.85 40.9748 18.4667 40.2248 17.9C39.4748 17.3333 38.5165 17.05 37.3498 17.05C35.9831 17.05 34.8998 17.4167 34.0998 18.15C33.2998 18.8833 32.1498 19.25 30.6498 19.25C29.1831 19.25 28.0665 18.8833 27.2998 18.15C26.5331 17.4167 25.4331 17.05 23.9998 17.05C22.5998 17.05 21.4998 17.4167 20.6998 18.15C19.8998 18.8833 18.7665 19.25 17.2998 19.25C15.8331 19.25 14.6998 18.8833 13.8998 18.15C13.0998 17.4167 12.0165 17.05 10.6498 17.05C9.41647 17.05 8.44147 17.3333 7.7248 17.9C7.00814 18.4667 6.1998 18.85 5.2998 19.05Z" fill="#023059"/>
</g>
</svg>
