<svg preserveAspectRatio="none" width="375" height="69" viewBox="0 0 375 69" fill="none" xmlns="http://www.w3.org/2000/svg">
<path fill-rule="evenodd" clip-rule="evenodd" d="M182.824 -128.171C245.753 -118.368 198.12 -68.8091 248.547 -50.194C290.483 -34.7133 366.842 -58.0005 411.308 -43.8265C465.847 -26.4417 537.663 5.96666 503.481 31.0683C465.952 58.6276 359.384 39.4358 286.655 47.7128C249.224 51.9727 221.75 69.3471 183.291 67.508C145.615 65.7063 127.673 47.5298 96.2875 38.6094C63.3281 29.2417 24.2248 25.689 -4.53212 14.125C-56.5856 -6.8071 -159.286 -26.1309 -136.537 -55.0157C-113.703 -84.0089 4.52044 -63.6844 68.2432 -78.2811C117.685 -89.6066 130.224 -136.365 182.824 -128.171Z" fill="#F5FCFE"/>
</svg>
