<svg width="24" height="24" viewBox="0 0 24 24" fill="none" xmlns="http://www.w3.org/2000/svg">
<mask id="mask0_293_64" style="mask-type:alpha" maskUnits="userSpaceOnUse" x="0" y="0" width="24" height="24">
<rect width="24" height="24" fill="#D9D9D9"/>
</mask>
<g mask="url(#mask0_293_64)">
<path d="M11.5 21.5V20.05C9.41672 19.85 7.69605 19.0707 6.33805 17.712C4.97938 16.354 4.20005 14.6333 4.00005 12.55H2.55005V11.55H4.00005C4.20005 9.46667 4.97938 7.74567 6.33805 6.38701C7.69605 5.02901 9.41672 4.25001 11.5 4.05001V2.60001H12.5V4.05001C14.5834 4.25001 16.3044 5.02901 17.663 6.38701C19.021 7.74567 19.8 9.46667 20 11.55H21.4501V12.55H20C19.8 14.6333 19.021 16.354 17.663 17.712C16.3044 19.0707 14.5834 19.85 12.5 20.05V21.5H11.5ZM12 19.05C13.9334 19.05 15.5834 18.3667 16.95 17C18.3167 15.6333 19 13.9833 19 12.05C19 10.1167 18.3167 8.46667 16.95 7.10001C15.5834 5.73334 13.9334 5.05001 12 5.05001C10.0667 5.05001 8.41672 5.73334 7.05005 7.10001C5.68338 8.46667 5.00005 10.1167 5.00005 12.05C5.00005 13.9833 5.68338 15.6333 7.05005 17C8.41672 18.3667 10.0667 19.05 12 19.05Z" fill="#023059"/>
</g>
</svg>
