<svg width="20" height="24" viewBox="0 0 20 24" fill="none" xmlns="http://www.w3.org/2000/svg">
<path d="M10.0001 12C10.6417 12 11.1912 11.7713 11.6486 11.314C12.1051 10.8575 12.3334 10.3083 12.3334 9.66668C12.3334 9.02501 12.1051 8.47551 11.6486 8.01818C11.1912 7.56162 10.6417 7.33334 10.0001 7.33334C9.35841 7.33334 8.8093 7.56162 8.35275 8.01818C7.89541 8.47551 7.66675 9.02501 7.66675 9.66668C7.66675 10.3083 7.89541 10.8575 8.35275 11.314C8.8093 11.7713 9.35841 12 10.0001 12ZM10.0001 20.575C12.3723 18.3972 14.132 16.4186 15.2792 14.639C16.4265 12.8602 17.0001 11.2806 17.0001 9.90001C17.0001 7.78057 16.3242 6.04495 14.9724 4.69318C13.6214 3.34218 11.964 2.66668 10.0001 2.66668C8.03619 2.66668 6.37836 3.34218 5.02658 4.69318C3.67558 6.04495 3.00008 7.78057 3.00008 9.90001C3.00008 11.2806 3.57369 12.8602 4.72091 14.639C5.86814 16.4186 7.62786 18.3972 10.0001 20.575ZM10.0001 23.6667C6.86953 21.0028 4.53153 18.5283 2.98608 16.2432C1.43986 13.9588 0.666748 11.8445 0.666748 9.90001C0.666748 6.98334 1.60514 4.65973 3.48191 2.92918C5.35791 1.19862 7.53064 0.333344 10.0001 0.333344C12.4695 0.333344 14.6422 1.19862 16.5182 2.92918C18.395 4.65973 19.3334 6.98334 19.3334 9.90001C19.3334 11.8445 18.5607 13.9588 17.0152 16.2432C15.469 18.5283 13.1306 21.0028 10.0001 23.6667Z" fill="#002242"/>
</svg>
