<svg preserveAspectRatio="none" width="1440" height="89" viewBox="0 0 1440 89" fill="none" xmlns="http://www.w3.org/2000/svg">
<path fill-rule="evenodd" clip-rule="evenodd" d="M673.068 -191.62C831.744 -177.867 711.486 -107.375 838.611 -81.0762C944.331 -59.2059 1136.97 -92.4711 1249.07 -72.4629C1386.57 -47.9221 1567.6 -2.09532 1481.33 33.6354C1386.61 72.8644 1117.9 45.8947 934.461 57.8381C840.05 63.9849 770.719 88.7264 673.731 86.2162C578.719 83.757 565.131 70.4212 486.002 57.8379C402.905 44.6236 304.298 39.6819 231.805 23.3383C-51.4995 -40.5337 -280.446 32.5723 -223 -8.49997C-165.338 -49.7263 223.229 -99.5895 383.972 -120.482C508.691 -136.693 540.435 -203.116 673.068 -191.62Z" fill="#F5FCFE"/>
</svg>
