<svg width="148" height="148" viewBox="0 0 148 148" fill="none" xmlns="http://www.w3.org/2000/svg">
<path fill-rule="evenodd" clip-rule="evenodd" d="M71.3708 1.01074C81.9691 0.707834 91.9555 6.85324 100.073 14.3513C107.604 21.3081 108.833 33.1877 115.164 41.4642C124.831 54.1009 144.416 59.0566 146.751 75.3679C148.968 90.8557 135.919 104.27 125.725 115.233C116.071 125.615 103.338 130.566 90.6631 135.688C77.1085 141.167 63.3455 149.776 49.2913 146.125C35.0482 142.424 24.6479 129.193 15.9289 116.269C7.66917 104.027 0.594148 89.8091 1.01812 74.5732C1.41813 60.1985 9.97696 47.9623 18.1424 36.7269C24.8762 27.4614 34.4043 22.1435 43.6123 15.9649C52.5894 9.94131 60.8574 1.31122 71.3708 1.01074Z" fill="#002242" stroke="#023059"/>
<path d="M51.5195 101.636L68.6911 91.2058L85.8627 101.763L81.4108 82.0476L96.5472 68.9464L76.5773 67.1656L68.6911 48.722L60.8049 67.0384L40.8349 68.8192L55.9714 82.0476L51.5195 101.636ZM47.1948 107.487L52.9187 83.0652L33.9663 66.6568L58.8969 64.4945L68.6911 41.4718L78.4852 64.4945L103.416 66.6568L84.4635 83.0652L90.1874 107.487L68.6911 94.5129L47.1948 107.487Z" fill="#CDE0FD"/>
</svg>
