<svg width="148" height="148" viewBox="0 0 148 148" fill="none" xmlns="http://www.w3.org/2000/svg">
<path fill-rule="evenodd" clip-rule="evenodd" d="M71.3708 1.01074C81.9691 0.707834 91.9555 6.85324 100.073 14.3513C107.604 21.3081 108.833 33.1877 115.164 41.4642C124.831 54.1009 144.416 59.0566 146.751 75.3679C148.968 90.8557 135.919 104.27 125.725 115.233C116.071 125.615 103.338 130.566 90.6631 135.688C77.1085 141.167 63.3455 149.776 49.2913 146.125C35.0482 142.424 24.6479 129.193 15.9289 116.269C7.66917 104.027 0.594148 89.8091 1.01812 74.5732C1.41813 60.1985 9.97696 47.9623 18.1424 36.7269C24.8762 27.4614 34.4043 22.1435 43.6123 15.9649C52.5894 9.94131 60.8574 1.31122 71.3708 1.01074Z" fill="#002242" stroke="#FFF4F7"/>
<path d="M67.7174 108.608C68.3286 108.608 68.9397 108.486 69.5508 108.242C70.1619 107.997 70.6508 107.661 71.0174 107.233L99.4341 78.8166C100.412 77.8389 101.191 76.8458 101.772 75.8375C102.352 74.8291 102.642 73.6833 102.642 72.4C102.642 71.1166 102.352 69.8791 101.772 68.6875C101.191 67.4958 100.412 66.4111 99.4341 65.4333L85.9591 51.9583C84.9813 50.9805 83.9883 50.2472 82.9799 49.7583C81.9716 49.2694 80.8258 49.025 79.5424 49.025C78.2591 49.025 77.098 49.2694 76.0591 49.7583C75.0202 50.2472 74.0424 50.9805 73.1258 51.9583L69.0924 55.9916L76.0591 62.9583C76.6702 63.5694 77.1744 64.318 77.5716 65.2041C77.9688 66.0902 78.1674 66.9916 78.1674 67.9083C78.1674 69.5583 77.6022 70.9333 76.4716 72.0333C75.3411 73.1333 73.9813 73.6833 72.3924 73.6833C71.4147 73.6833 70.5286 73.5458 69.7341 73.2708C68.9397 72.9958 68.2063 72.5527 67.5341 71.9416L60.5674 64.8833L44.6174 80.8333C44.1897 81.2611 43.8536 81.7805 43.6091 82.3916C43.3647 83.0027 43.2424 83.5833 43.2424 84.1333C43.2424 85.2333 43.5786 86.1041 44.2508 86.7458C44.923 87.3875 45.7786 87.7083 46.8174 87.7083C47.4286 87.7083 48.0397 87.5708 48.6508 87.2958C49.2619 87.0208 49.7508 86.7 50.1174 86.3333L61.5758 74.875L63.0424 76.3416L51.5841 87.7083C51.1563 88.1972 50.8202 88.7319 50.5758 89.3125C50.3313 89.893 50.2091 90.4889 50.2091 91.1C50.2091 92.0777 50.5605 92.918 51.2633 93.6208C51.9661 94.3236 52.8063 94.675 53.7841 94.675C54.3952 94.675 55.0063 94.5527 55.6174 94.3083C56.2286 94.0639 56.7174 93.7277 57.0841 93.3L69.6424 80.7416L71.1091 82.2083L58.5508 94.675C58.1841 95.1027 57.8633 95.6222 57.5883 96.2333C57.3133 96.8444 57.1758 97.4555 57.1758 98.0666C57.1758 99.0444 57.5272 99.8847 58.2299 100.587C58.9327 101.29 59.773 101.642 60.7508 101.642C61.3619 101.642 61.9577 101.519 62.5383 101.275C63.1188 101.031 63.623 100.694 64.0508 100.267L76.6091 87.7083L78.0758 89.175L65.5174 101.733C65.0897 102.161 64.7536 102.696 64.5091 103.337C64.2647 103.979 64.1424 104.575 64.1424 105.125C64.1424 106.164 64.4938 107.004 65.1966 107.646C65.8994 108.287 66.7397 108.608 67.7174 108.608ZM67.7174 110.625C66.0063 110.625 64.5702 109.968 63.4091 108.654C62.248 107.34 61.8202 105.675 62.1258 103.658C60.048 103.842 58.3216 103.322 56.9466 102.1C55.5716 100.878 54.9758 99.075 55.1591 96.6916C52.8369 96.8139 51.0341 96.2486 49.7508 94.9958C48.4674 93.743 47.948 91.9861 48.1924 89.725C46.298 89.9083 44.6633 89.5111 43.2883 88.5333C41.9133 87.5555 41.2258 86.0889 41.2258 84.1333C41.2258 83.2777 41.3938 82.4222 41.7299 81.5666C42.0661 80.7111 42.5397 79.9777 43.1508 79.3666L60.5674 61.95L68.7258 70.1083C69.1536 70.5361 69.6883 70.9027 70.3299 71.2083C70.9716 71.5139 71.6591 71.6666 72.3924 71.6666C73.3702 71.6666 74.2411 71.3 75.0049 70.5666C75.7688 69.8333 76.1508 68.9472 76.1508 67.9083C76.1508 67.2361 75.998 66.6097 75.6924 66.0291C75.3869 65.4486 75.0202 64.9139 74.5924 64.425L62.1258 51.9583C61.148 50.9805 60.1397 50.2472 59.1008 49.7583C58.0619 49.2694 56.9008 49.025 55.6174 49.025C54.3341 49.025 53.2036 49.2694 52.2258 49.7583C51.248 50.2472 50.2702 50.9805 49.2924 51.9583L38.3841 62.8666C37.4063 63.8444 36.6577 64.9444 36.1383 66.1666C35.6188 67.3889 35.3897 68.7333 35.4508 70.2C35.4508 71.1777 35.6036 72.1097 35.9091 72.9958C36.2147 73.8819 36.6119 74.6916 37.1008 75.425L35.4508 76.9833C34.9619 76.1277 34.5188 75.0889 34.1216 73.8666C33.7244 72.6444 33.4952 71.3916 33.4341 70.1083C33.373 68.3972 33.648 66.793 34.2591 65.2958C34.8702 63.7986 35.7563 62.4694 36.9174 61.3083L47.7341 50.4916C48.8952 49.3305 50.1327 48.4597 51.4466 47.8791C52.7605 47.2986 54.1813 47.0083 55.7091 47.0083C57.2369 47.0083 58.6424 47.2986 59.9258 47.8791C61.2091 48.4597 62.4313 49.3305 63.5924 50.4916L67.6258 54.525L71.6591 50.4916C72.8202 49.3305 74.0424 48.4597 75.3258 47.8791C76.6091 47.2986 78.0147 47.0083 79.5424 47.0083C81.0702 47.0083 82.4911 47.2986 83.8049 47.8791C85.1188 48.4597 86.3563 49.3305 87.5174 50.4916L100.901 63.875C102.062 65.0361 102.979 66.3652 103.651 67.8625C104.323 69.3597 104.659 70.8722 104.659 72.4C104.659 73.9277 104.323 75.3333 103.651 76.6166C102.979 77.9 102.062 79.1222 100.901 80.2833L72.4841 108.7C71.8119 109.433 71.0786 109.937 70.2841 110.212C69.4897 110.487 68.6341 110.625 67.7174 110.625Z" fill="#FFF4F7"/>
</svg>
