<svg width="148" height="148" viewBox="0 0 148 148" fill="none" xmlns="http://www.w3.org/2000/svg">
<path fill-rule="evenodd" clip-rule="evenodd" d="M71.3708 1.01074C81.9691 0.707834 91.9555 6.85324 100.073 14.3513C107.604 21.3081 108.833 33.1877 115.164 41.4642C124.831 54.1009 144.416 59.0566 146.751 75.3679C148.968 90.8557 135.919 104.27 125.725 115.233C116.071 125.615 103.338 130.566 90.6631 135.688C77.1085 141.167 63.3455 149.776 49.2913 146.125C35.0482 142.424 24.6479 129.193 15.9289 116.269C7.66917 104.027 0.594148 89.8091 1.01812 74.5732C1.41813 60.1985 9.97696 47.9623 18.1424 36.7269C24.8762 27.4614 34.4043 22.1435 43.6123 15.9649C52.5894 9.94131 60.8574 1.31122 71.3708 1.01074Z" fill="#002242" stroke="#B3DBB9"/>
<mask id="mask0_402_8" style="mask-type:alpha" maskUnits="userSpaceOnUse" x="25" y="30" width="88" height="88">
<rect x="25" y="30" width="88" height="88" fill="#D9D9D9"/>
</mask>
<g mask="url(#mask0_402_8)">
<path d="M88.3408 102.233H52.4991V64.2834L74.5908 42.2834L75.0491 42.4667C75.3547 42.7723 75.5991 43.1237 75.7825 43.5209C75.9658 43.9181 76.0575 44.3001 76.0575 44.6667V44.9417L72.2991 64.2834H99.5241C100.807 64.2834 101.953 64.7876 102.962 65.7959C103.97 66.8042 104.474 67.9501 104.474 69.2334V72.9917C104.474 73.2973 104.459 73.6334 104.428 74.0001C104.398 74.3667 104.321 74.7028 104.199 75.0084L94.3908 98.2917C93.9019 99.3917 93.0616 100.324 91.87 101.088C90.6783 101.851 89.5019 102.233 88.3408 102.233ZM54.5158 100.217H88.7075C89.3186 100.217 89.9908 100.033 90.7241 99.6667C91.4575 99.3001 92.0075 98.6889 92.3741 97.8334L102.457 74.0001V69.2334C102.457 68.4389 102.167 67.7514 101.587 67.1709C101.006 66.5903 100.319 66.3001 99.5241 66.3001H70.0075L73.9491 45.5834L54.5158 65.2001V100.217ZM52.4991 64.2834V66.3001H39.1158V100.217H52.4991V102.233H37.0991V64.2834H52.4991Z" fill="#B3DBB9"/>
</g>
</svg>
